<svg width="192" height="171" viewBox="0 0 192 171" fill="none" xmlns="http://www.w3.org/2000/svg">
<path d="M112.119 127.703V100.109C112.119 98.8634 111.5 97.6987 110.468 97.0015C109.435 96.3044 108.124 96.1657 106.968 96.6307L42.35 122.655H21.5375C9.66191 122.655 0 132.317 0 144.193C0 156.069 9.66191 165.731 21.5382 165.731H24.0166V188.251C24.0166 190.321 25.6955 192.001 27.7666 192.001H43.0757C45.1468 192.001 46.8257 190.321 46.8257 188.251V167.54L106.97 191.73C107.421 191.911 107.896 192.001 108.368 192.001C109.106 192.001 109.839 191.783 110.468 191.358C111.5 190.661 112.119 189.496 112.119 188.251V160.658C119.639 158.947 125.271 152.211 125.271 144.18C125.271 136.15 119.639 129.414 112.119 127.703ZM39.3253 184.501H31.5166V165.731H39.3256V184.501H39.3253ZM39.326 158.231H21.5382C13.7974 158.231 7.50003 151.933 7.50003 144.193C7.50003 136.452 13.7974 130.155 21.5382 130.155H39.3275L39.326 158.231ZM104.619 182.7H104.619L46.8275 159.457V128.937L87.8628 112.41V149.625C87.8628 151.696 89.5417 153.375 91.6128 153.375C93.684 153.375 95.3628 151.696 95.3628 149.625V109.39L104.619 105.662V182.7ZM112.119 152.799V135.561C115.442 137.012 117.771 140.328 117.771 144.18C117.771 148.032 115.442 151.348 112.119 152.799Z" fill="#D94E3B"/>
<path d="M177.001 -6.10352e-05H107.25C98.9794 -6.10352e-05 92.2504 6.72896 92.2504 15V16.5H29.2502C24.2874 16.5 20.2501 20.5376 20.2501 25.5V84.7502C20.2501 89.7126 24.2874 93.7503 29.2502 93.7503H33.125V105.25C33.125 106.767 34.0389 108.135 35.4399 108.715C35.9038 108.907 36.3909 109 36.8743 109C37.8501 109 38.8093 108.619 39.5267 107.902L53.6785 93.7503H128.168C133.131 93.7503 137.168 89.7126 137.168 84.7502V73.5002H177.001C185.272 73.5002 192.001 66.7712 192.001 58.5001V15C192 6.72896 185.272 -6.10352e-05 177.001 -6.10352e-05ZM129.668 84.7502C129.668 85.5775 128.995 86.2502 128.168 86.2502H52.1252C51.1307 86.2502 50.1767 86.6455 49.4736 87.3486L40.6254 96.1972V90.0003C40.6254 87.9295 38.9466 86.2502 36.8754 86.2502H29.2502C28.4229 86.2502 27.7501 85.5775 27.7501 84.7502V25.5C27.7501 24.6728 28.4229 24 29.2502 24H92.2504V58.5001C92.2504 66.7712 98.9794 73.5002 107.25 73.5002H129.668V84.7502ZM184.501 58.5001C184.501 62.6357 181.136 66.0002 177.001 66.0002H107.25C103.115 66.0002 99.7504 62.6357 99.7504 58.5001V15C99.7504 10.8645 103.115 7.49997 107.25 7.49997H177.001C181.136 7.49997 184.501 10.8645 184.501 15V58.5001Z" fill="#D94E3B"/>
</svg>
