<svg width="20" height="20" viewBox="0 0 20 20" fill="none" xmlns="http://www.w3.org/2000/svg">
<rect x="0.5" y="0.5" width="19" height="19" rx="2.5" fill="#F9F9F9"/>
<path d="M7.62531 15C6.90295 15 6.72165 14.9286 6.72165 14.2858V8.57247L6.546 8.51319C6.4035 8.51491 6.26597 8.4608 6.16366 8.36272C6.06135 8.26464 6.00266 8.13064 6 7.98977V7.03411C6.00266 6.89344 6.06128 6.75959 6.16366 6.66186C6.26604 6.56412 6.40371 6.51049 6.546 6.51278L8.1699 6.42996V5.71579C8.16327 5.62032 8.17756 5.52452 8.21152 5.4349C8.24548 5.34529 8.29827 5.26388 8.36671 5.19621C8.43516 5.12854 8.51733 5.07617 8.60797 5.0426C8.69862 5.00902 8.79569 4.99507 8.89226 5.00162H11.0593C11.1559 4.99495 11.2529 5.00889 11.3436 5.04242C11.4343 5.07595 11.5164 5.12834 11.5849 5.19603C11.6534 5.26373 11.7069 5.34506 11.7408 5.43473C11.7747 5.5244 11.7884 5.62029 11.7817 5.71579V6.42996H13.2264C13.5276 6.42996 13.9488 6.74491 13.9488 7.03272V7.9882C13.9488 8.63524 14.2472 8.5118 13.4035 8.5118L13.2271 8.57108V14.2844C13.2271 14.8658 12.9844 14.9986 12.3235 14.9986L7.62531 15ZM12.5012 14.2858V8.57247H7.44472V14.2858H12.5012ZM6.72236 7.14413V7.8583L13.292 7.8848V7.13629L6.72236 7.14413ZM8.88944 6.42996H11.0565V5.71579H8.88944V6.42996ZM11.0565 13.5717V9.28664H11.7789V13.5717H11.0565ZM9.6118 13.5717V9.28664H10.3342V13.5717H9.6118ZM8.16708 13.5717V9.28664H8.88944V13.5717H8.16708Z" fill="#212121"/>
<rect x="0.5" y="0.5" width="19" height="19" rx="2.5" stroke="#BABABA"/>
</svg>
