<svg width="20" height="20" viewBox="0 0 20 20" fill="none" xmlns="http://www.w3.org/2000/svg">
<rect x="0.5" y="0.5" width="19" height="19" rx="2.5" fill="#F9F9F9"/>
<path d="M7.7516 12.9941C9.1516 13.0325 10.9666 12.9941 12.2273 12.9782C11.1652 14.1293 10.9329 13.9808 10.0547 15C9.26051 14.1433 9.06887 14.3733 7.7516 12.9941ZM12.2273 11.6679V10.3417H13.5V11.6679H12.2273ZM10.3182 11.6679V10.3417H11.5909V11.6679H10.3182ZM8.40909 11.6679V10.3417H9.68182V11.6679H8.40909ZM6.5 11.6679V10.3417H7.77273V11.6679H6.5ZM12.2273 9.67866V8.35249H13.5V9.67866H12.2273ZM10.3182 9.67866V8.35249H11.5909V9.67866H10.3182ZM8.40909 9.67866V8.35249H9.68182V9.67866H8.40909ZM6.5 9.67866V8.35249H7.77273V9.67866H6.5ZM7.75284 7.02632L7.77459 7.00317H7.75284C9.07011 5.62462 9.26175 5.85405 10.0559 5C10.9341 6.01916 11.1664 5.87072 12.2285 7.01985H12.2074L12.2285 7.04235C10.9666 7.03108 9.14905 6.98861 7.7516 7.02972L7.75284 7.02632Z" fill="#212121"/>
<rect x="0.5" y="0.5" width="19" height="19" rx="2.5" stroke="#BABABA"/>
</svg>
