<svg width="12" height="13" viewBox="0 0 12 13" fill="none" xmlns="http://www.w3.org/2000/svg">
<path d="M5.99864 12.3333C4.84497 12.3331 3.71727 11.9908 2.75814 11.3496C1.79901 10.7085 1.05153 9.7974 0.610199 8.73148C0.168872 7.66556 0.0535228 6.49271 0.278738 5.36123C0.503954 4.22975 1.05962 3.19047 1.87547 2.37478C2.69133 1.55909 3.73073 1.00364 4.86225 0.778658C5.99377 0.553674 7.1666 0.669263 8.23243 1.11081C9.29827 1.55236 10.2092 2.30003 10.8502 3.25929C11.4911 4.21855 11.8332 5.34632 11.8332 6.49999C11.8317 8.04684 11.2165 9.52989 10.1226 10.6236C9.02867 11.7172 7.54549 12.3322 5.99864 12.3333ZM5.50791 5.58272C5.51658 5.58256 5.52522 5.58391 5.53343 5.5867C5.5691 5.60139 5.59801 5.62885 5.61453 5.66372C5.63104 5.69859 5.63396 5.73835 5.62272 5.77526L4.65243 8.98712C4.62492 9.0697 4.61576 9.15728 4.62561 9.24377C4.63546 9.33025 4.66406 9.41354 4.70943 9.48781C4.77388 9.57877 4.85701 9.65491 4.95326 9.71114C5.04951 9.76738 5.15665 9.80241 5.26753 9.8139C5.98509 9.8139 6.42957 9.36623 6.91074 8.64389C6.91074 8.61718 6.91353 8.57612 6.91632 8.53546C6.92757 8.43672 6.92904 8.3371 6.9207 8.23807L6.33549 8.94367C6.25629 9.04694 6.14348 9.11927 6.01658 9.14817C6.00711 9.1482 5.99769 9.14672 5.98868 9.14379C5.95586 9.13086 5.92873 9.10667 5.91215 9.07555C5.89556 9.04442 5.89061 9.00841 5.89818 8.97396L6.87326 5.74496C6.89587 5.64771 6.89783 5.5468 6.87902 5.44875C6.8602 5.35069 6.82103 5.25768 6.76404 5.1757C6.70463 5.09939 6.62963 5.03663 6.54405 4.99161C6.45846 4.94658 6.36426 4.92032 6.26773 4.91459C5.78377 4.91459 5.05705 5.43283 4.61256 6.09776C4.61256 6.1153 4.61256 6.13763 4.61256 6.16673V6.18187C4.60736 6.28472 4.60895 6.38779 4.61735 6.49042L5.20415 5.78642C5.27907 5.68572 5.38631 5.61381 5.50791 5.58272ZM6.78038 3.11432C6.69169 3.11084 6.60323 3.12564 6.52051 3.1578C6.43778 3.18996 6.36256 3.2388 6.29952 3.30128C6.23648 3.36376 6.18697 3.43855 6.15407 3.52098C6.12116 3.60341 6.10558 3.69174 6.10827 3.78045C6.10708 3.91363 6.14549 4.04416 6.21862 4.15547C6.29175 4.26679 6.3963 4.35386 6.519 4.40565C6.64171 4.45744 6.77703 4.4716 6.9078 4.44635C7.03857 4.4211 7.15888 4.35756 7.25348 4.26381C7.34807 4.17005 7.41268 4.05031 7.43911 3.91977C7.46553 3.78923 7.45257 3.65379 7.40188 3.53063C7.35119 3.40747 7.26505 3.30214 7.1544 3.22802C7.04374 3.1539 6.91356 3.11433 6.78038 3.11432Z" fill="#1494D5"/>
</svg>
