<svg width="48" height="48" viewBox="0 0 48 48" fill="none" xmlns="http://www.w3.org/2000/svg">
<rect width="48" height="48" rx="24" fill="#FFF2F2"/>
<path fill-rule="evenodd" clip-rule="evenodd" d="M24.1849 12.0291C23.4471 12.0291 22.7168 12.177 22.0371 12.4639C21.3574 12.7508 20.742 13.1711 20.2274 13.6998C19.7128 14.2285 19.3093 14.8549 19.0408 15.5422C18.7724 16.2294 18.6443 16.9634 18.6642 17.701L18.6644 17.7102V22.2025H17.302V17.7283C17.2785 16.812 17.4382 15.9002 17.7718 15.0464C18.1065 14.1896 18.6095 13.4086 19.2511 12.7495C19.8927 12.0903 20.6598 11.5664 21.5072 11.2087C22.3546 10.851 23.2651 10.6667 24.1849 10.6667C25.1048 10.6667 26.0152 10.851 26.8627 11.2087C27.7101 11.5664 28.4772 12.0903 29.1188 12.7495C29.7603 13.4086 30.2633 14.1896 30.5981 15.0464C30.9316 15.9002 31.0914 16.812 31.0679 17.7283V22.189H29.7054V17.7102L29.7057 17.701C29.7256 16.9634 29.5975 16.2294 29.329 15.5422C29.0606 14.8549 28.6571 14.2285 28.1425 13.6998C27.6278 13.1711 27.0125 12.7508 26.3328 12.4639C25.6531 12.177 24.9227 12.0291 24.1849 12.0291Z" fill="#FB6E6D"/>
<path fill-rule="evenodd" clip-rule="evenodd" d="M31.6158 22.4318H16.7424C15.6122 22.4318 14.6959 23.348 14.6959 24.4782V33.9245C14.6959 35.0547 15.6122 35.9709 16.7424 35.9709H31.6158C32.746 35.9709 33.6623 35.0547 33.6623 33.9245V24.4782C33.6623 23.348 32.746 22.4318 31.6158 22.4318ZM16.7424 21.0693H31.6158C33.4985 21.0693 35.0247 22.5955 35.0247 24.4782V33.9245C35.0247 35.8071 33.4985 37.3333 31.6158 37.3333H16.7424C14.8597 37.3333 13.3335 35.8071 13.3335 33.9245V24.4782C13.3335 22.5955 14.8597 21.0693 16.7424 21.0693Z" fill="#FB6E6D"/>
<path fill-rule="evenodd" clip-rule="evenodd" d="M24.6325 27.9867C24.6318 27.9031 24.6078 27.8213 24.5632 27.7505C24.5186 27.6796 24.4552 27.6227 24.3801 27.5859C24.3049 27.5491 24.221 27.534 24.1377 27.5422C24.0545 27.5504 23.9753 27.5817 23.9087 27.6325C23.8421 27.6833 23.791 27.7517 23.7612 27.8297C23.7313 27.9078 23.7238 27.9927 23.7394 28.0749C23.7551 28.1571 23.7934 28.2333 23.8499 28.295C23.9064 28.3567 23.979 28.4014 24.0596 28.4242L24.1851 28.4596L24.3092 28.4244C24.4032 28.3978 24.4858 28.3409 24.5443 28.2627C24.6027 28.1844 24.6337 28.0891 24.6326 27.9913L24.6325 27.9867ZM25.0516 29.584C24.9346 29.6476 24.8103 29.6985 24.6807 29.7353V31.9472C24.6807 32.0795 24.6281 32.2064 24.5346 32.2999C24.4411 32.3934 24.3142 32.4459 24.182 32.4459C24.0507 32.4444 23.9254 32.3912 23.8331 32.2978C23.7408 32.2044 23.6891 32.0785 23.6891 31.9472V29.7353C23.5597 29.6987 23.4354 29.648 23.3182 29.5845C23.1421 29.4891 22.9821 29.3646 22.8455 29.2156C22.618 28.9674 22.4641 28.6607 22.4011 28.33C22.3381 27.9993 22.3684 27.6575 22.4886 27.343C22.6089 27.0286 22.8144 26.7538 23.082 26.5495C23.3496 26.3452 23.6688 26.2195 24.0038 26.1864C24.3389 26.1533 24.6766 26.2142 24.979 26.3622C25.2814 26.5102 25.5366 26.7394 25.716 27.0243C25.8955 27.3092 25.9921 27.6384 25.9949 27.9751C25.9997 28.3721 25.8735 28.7597 25.636 29.0778C25.479 29.288 25.2792 29.4601 25.0516 29.584Z" fill="#FB6E6D"/>
</svg>
